<svg xmlns="http://www.w3.org/2000/svg" viewBox="0 0 925.22 129.61"><title>kit-logo</title><g id="Слой_2" data-name="Слой 2"><g id="Слой_4" data-name="Слой 4"><path d="M235.92,44.45h15.4V75l28.4-30.6h18.6l-28.5,29.7,29.8,40.3h-18.5l-21.7-29.8-8.1,8.4v21.4h-15.4Z" fill="#1b3ba5"/><path d="M376.22,114.45H361V68.55l-30.6,45.9h-14.5v-70h15.2v45.9l30.8-45.9h14.3Z" fill="#1b3ba5"/><path d="M416.32,58.65H395V44.45h58v14.2h-21.3v55.8h-15.4Z" fill="#1b3ba5"/><path d="M469.32,79.45c0-19.9,14.9-36.2,36.1-36.2,12.9,0,20.7,4.5,27.4,10.9l-7.9,9.1c-5.6-5.2-11.6-8.7-19.6-8.7-13.4,0-23.1,11-23.1,24.9,0,13.7,9.7,24.9,23.1,24.9,8.6,0,14.1-3.5,20.1-9.1l7.9,8c-7.3,7.6-15.3,12.4-28.4,12.4C484.52,115.65,469.32,99.75,469.32,79.45Z" fill="#3e8cfc"/><path d="M553.21,44.45h51.9v11h-39.6v18.2h35.1v11h-35.1v18.8h40.1v11h-52.4Z" fill="#3e8cfc"/><path d="M627.21,44.45h27.6c16.3,0,26.6,9.3,26.6,23.6,0,15.7-12.6,23.9-28,23.9h-13.9v22.5h-12.3Zm26.6,36.4c9.3,0,15.1-5.2,15.1-12.7,0-8.2-5.9-12.5-15.1-12.5h-14.3v25.2Z" fill="#3e8cfc"/><path d="M701,44.45h31.4c8,0,14.3,2.2,18.3,6.2a15.82,15.82,0,0,1,4.7,11.8c0,8.4-4.8,12.9-10,15.6,8.2,2.8,13.9,7.5,13.9,17.2,0,12.5-10.3,19.2-25.9,19.2H701Zm28.9,29.5c7.9,0,13.2-3.1,13.2-9.7,0-5.5-4.4-8.9-12.3-8.9h-17.7v18.6Zm3.6,29.6c8.4,0,13.5-3.3,13.5-9.8,0-5.9-4.7-9.4-14.4-9.4h-19.5v19.2Z" fill="#3e8cfc"/><path d="M780.21,44.45h12.1v51.1l35.4-51.1h11.5v70h-12.1v-51l-35.3,51h-11.6Z" fill="#3e8cfc"/><path d="M861.21,79.45c0-19.9,14.9-36.2,36.1-36.2,12.9,0,20.7,4.5,27.4,10.9l-7.9,9.1c-5.6-5.2-11.6-8.7-19.6-8.7-13.4,0-23.1,11-23.1,24.9,0,13.7,9.7,24.9,23.1,24.9,8.6,0,14.1-3.5,20.1-9.1l7.9,8c-7.3,7.6-15.3,12.4-28.4,12.4C876.41,115.65,861.21,99.75,861.21,79.45Z" fill="#3e8cfc"/><path d="M212.29,33c7.09,5-23.21,44.45-52.41,69.48-28.17,24.15-58.73,28.8-63.7,26.75-2.72-1.12.56-3.09,14.68-12,6.95-4.4,13.22-11.87,8.09-13.14-4.69-1.16-9.13-1.62-18.59-5.3C93.79,96.15,77.57,88.29,69,74.06c-6.43-10.66-7.74-27.2-4.28-34.24,0,0-.12,15.14,13.25,21.57,12.38,6,36.25,7.8,67.7-.54C166.56,55.31,203.48,26.77,212.29,33Z" fill="#3e8cfc"/><path d="M58.67,59.63A35,35,0,0,1,58.8,40c3.08-10.05,6.52-16.63,7.84-24.86C67.93,7.09,65.35,2,64.47.61a.25.25,0,0,0-.44,0,22.32,22.32,0,0,1-7.29,9.61c-6.55,4.73-10.8,9.41-12.08,11.4A19.09,19.09,0,0,0,41.45,32a.19.19,0,0,1-.23.18C40,32,34.36,31.49,26,38.41c-7.19,5.92-8.64,6.66-12.78,9.2C6.44,51.74,1.8,52.42.68,52.53a.18.18,0,0,0-.16.26c.62,1.26,4.23,7,18.41,6C31.38,57.88,40.12,51,47.86,50.7,53.16,50.47,58.67,59.63,58.67,59.63Z" fill="#1b3ba5" stroke="#1b3ba5" stroke-miterlimit="10"/><path d="M212.29,33c7.09,5-23.21,44.45-52.41,69.48-28.17,24.15-58.73,28.8-63.7,26.75-2.72-1.12.56-3.09,14.68-12,6.95-4.4,13.22-11.87,8.09-13.14-4.69-1.16-9.27-1.32-18.59-5.3-6.57-2.8-11.4-4.65-21.3-12.86,0,0,5.78,5.24,20.27,2.74,11.42-2,23.27-6.53,50.46-23.63C169.45,52.59,203.48,26.77,212.29,33Z" fill="#1b3ba5"/></g></g></svg>